[Header]                  # Header keywords are followed by a single value
FileType htr              # single word string
DataType HTRS             # Hierarchical translations followed by rotations and Scale
FileVersion 1             # integer
NumSegments   22        # integer
NumFrames   4          # integer
DataFrameRate    60      # integer
EulerRotationOrder ZYX    # one word string
CalibrationUnits mm   # one word string
RotationUnits Degrees     # one word string
GlobalAxisofGravity Y        # character, X or Y or Z
BoneLengthAxis Y
ScaleFactor 1.0000
[SegmentNames&Hierarchy]
#CHILD         PARENT
LowerTorso	GLOBAL
MidTorso1	LowerTorso
MidTorso2	MidTorso1
UpperTorso	MidTorso2
Neck	UpperTorso
Head	Neck
LCollar	UpperTorso
LUpArm	LCollar
LLowArm	LUpArm
LHand	LLowArm
RCollar	UpperTorso
RUpArm	RCollar
RLowArm	RUpArm
RHand	RLowArm
RThigh	LowerTorso
RLowLeg	RThigh
RFoot	RLowLeg
RToe	RFoot
LThigh	LowerTorso
LLowLeg	LThigh
LFoot	LLowLeg
LToe	LFoot
[BasePosition]
#SegmentName Tx, Ty, Tz, Rx, Ry, Rz, BoneLength
LowerTorso	245.858011	950.547112	300.901792	3.160114	-0.119681	0.216534	50.177140	
MidTorso1	0.000000	50.177140	0.000000	12.744977	0.544086	-1.233692	50.243103	
MidTorso2	0.000000	50.243103	0.000000	-8.561622	-5.666755	-0.324056	70.108070	
UpperTorso	0.000000	70.108070	0.000000	-7.840640	5.423498	1.565454	211.798493	
Neck	0.000000	211.798493	0.000000	3.763396	2.354772	0.143986	247.477358	
Head	0.000000	247.477358	0.000000	87.188098	-1.617490	-0.909978	97.755902	
LCollar	5.963899	207.774288	0.020038	-0.085181	3.120430	-88.053499	154.341182	
LUpArm	0.000000	154.341182	0.000000	17.609330	2.601210	1.098979	257.694232	
LLowArm	0.000000	257.694232	0.000000	-4.295116	-4.411555	-0.381267	245.288314	
LHand	0.000000	245.288314	0.000000	-1.254656	0.451892	-3.187610	143.943585	
RCollar	-6.407295	207.548200	-0.033576	-3.957489	-2.573361	89.782717	159.716168	
RUpArm	0.000000	159.716168	0.000000	10.569861	0.025507	1.593474	259.181013	
RLowArm	0.000000	259.181013	0.000000	2.433186	-0.094719	0.439860	254.783021	
RHand	0.000000	254.783021	0.000000	-2.521327	-1.940663	10.821380	138.724995	
RThigh	-104.582724	-43.868855	71.110148	1.186921	1.056410	177.271085	484.665755	
RLowLeg	0.000000	484.665755	0.000000	-9.413113	-2.560999	2.584420	338.943480	
RFoot	0.000000	338.943480	0.000000	38.119802	-1.210697	-2.462270	108.422675	
RToe	0.000000	108.422675	0.000000	62.205972	5.729825	0.107186	135.948299	
LThigh	104.514322	-44.027056	71.110540	1.887019	-3.794944	-176.973714	484.665500	
LLowLeg	0.000000	484.665500	0.000000	-9.413064	2.561022	-2.584327	338.944952	
LFoot	0.000000	338.944952	0.000000	38.119895	1.210631	2.462181	108.422417	
LToe	0.000000	108.422417	0.000000	62.206117	-5.729564	-0.107296	135.948400	
#Beginning of Data. Separated by tabs
[LowerTorso]
#Fr     Tx      Ty      Tz      Rx      Ry      Rz      SF
132	1275.734863	45.559410	276.587067	-149.066895	-53.747807	168.168869	1.000000	
133	1284.251709	66.694733	278.509003	-147.831253	-52.629978	167.934235	1.000000	
134	1293.155640	84.743004	279.981354	-146.561249	-51.549244	167.598709	1.000000	
135	1302.643433	99.139183	280.789307	-145.729126	-50.795029	167.396988	1.000000	
[MidTorso1]
#Fr     Tx      Ty      Tz      Rx      Ry      Rz      SF
132	0.000000	0.000000	0.000000	3.210010	0.338099	-2.417733	1.000000	
133	0.000000	0.000000	0.000000	2.956779	0.413857	-2.703142	1.000000	
134	0.000000	0.000000	0.000000	2.676663	0.474165	-3.038906	1.000000	
135	0.000000	0.000000	0.000000	2.491943	0.558651	-3.296478	1.000000	
[MidTorso2]
#Fr     Tx      Ty      Tz      Rx      Ry      Rz      SF
132	0.000000	0.000000	0.000000	2.942815	0.760049	-2.639886	1.000000	
133	0.000000	0.000000	0.000000	2.660308	0.869547	-2.885959	1.000000	
134	0.000000	0.000000	0.000000	2.345760	0.970276	-3.181389	1.000000	
135	0.000000	0.000000	0.000000	2.134042	1.086070	-3.405475	1.000000	
[UpperTorso]
#Fr     Tx      Ty      Tz      Rx      Ry      Rz      SF
132	0.000000	0.000000	0.000000	3.196712	0.990493	-2.233014	1.000000	
133	0.000000	0.000000	0.000000	2.940754	1.145775	-2.484302	1.000000	
134	0.000000	0.000000	0.000000	2.656658	1.300697	-2.788204	1.000000	
135	0.000000	0.000000	0.000000	2.469115	1.455984	-3.010612	1.000000	
[Neck]
#Fr     Tx      Ty      Tz      Rx      Ry      Rz      SF
132	0.000000	0.000000	0.000000	-14.870622	30.017143	-7.067375	1.000000	
133	0.000000	0.000000	0.000000	-15.099393	30.287514	-7.264715	1.000000	
134	0.000000	0.000000	0.000000	-15.214289	30.352173	-7.278960	1.000000	
135	0.000000	0.000000	0.000000	-15.273129	30.087492	-7.233171	1.000000	
[Head]
#Fr     Tx      Ty      Tz      Rx      Ry      Rz      SF
132	0.000000	0.000000	0.000000	-0.817730	-6.855595	0.420284	1.000000	
133	0.000000	0.000000	0.000000	-0.532151	-6.601922	0.382996	1.000000	
134	0.000000	0.000000	0.000000	-0.029622	-6.215868	0.310895	1.000000	
135	0.000000	0.000000	0.000000	0.589581	-5.840559	0.222469	1.000000	
[LCollar]
#Fr     Tx      Ty      Tz      Rx      Ry      Rz      SF
132	0.000000	0.000000	0.000000	5.355252	1.331120	-13.918192	1.000000	
133	0.000000	0.000000	0.000000	5.337313	1.249099	-13.133884	1.000000	
134	0.000000	0.000000	0.000000	5.468594	1.190568	-12.244906	1.000000	
135	0.000000	0.000000	0.000000	5.657077	1.152123	-11.473998	1.000000	
[LUpArm]
#Fr     Tx      Ty      Tz      Rx      Ry      Rz      SF
132	0.000000	0.000000	0.000000	14.160357	20.272432	-34.551010	1.000000	
133	0.000000	0.000000	0.000000	13.295110	21.717142	-35.779221	1.000000	
134	0.000000	0.000000	0.000000	12.269140	23.011730	-37.047466	1.000000	
135	0.000000	0.000000	0.000000	11.363871	24.189581	-38.017143	1.000000	
[LLowArm]
#Fr     Tx      Ty      Tz      Rx      Ry      Rz      SF
132	0.000000	0.000000	0.000000	99.463211	-0.012353	-0.014579	1.000000	
133	0.000000	0.000000	0.000000	99.836617	-0.012339	-0.014660	1.000000	
134	0.000000	0.000000	0.000000	100.245949	-0.012324	-0.014748	1.000000	
135	0.000000	0.000000	0.000000	100.669128	-0.012307	-0.014839	1.000000	
[LHand]
#Fr     Tx      Ty      Tz      Rx      Ry      Rz      SF
132	0.000000	0.000000	0.000000	22.621780	3.133265	3.783235	1.000000	
133	0.000000	0.000000	0.000000	22.439854	3.283565	3.649158	1.000000	
134	0.000000	0.000000	0.000000	22.319601	3.116508	3.628620	1.000000	
135	0.000000	0.000000	0.000000	22.285738	2.552396	3.556222	1.000000	
[RCollar]
#Fr     Tx      Ty      Tz      Rx      Ry      Rz      SF
132	0.000000	0.000000	0.000000	4.532430	-1.286172	15.809474	1.000000	
133	0.000000	0.000000	0.000000	4.969809	-1.370273	15.376078	1.000000	
134	0.000000	0.000000	0.000000	5.303028	-1.421339	14.961365	1.000000	
135	0.000000	0.000000	0.000000	5.536331	-1.439200	14.526701	1.000000	
[RUpArm]
#Fr     Tx      Ty      Tz      Rx      Ry      Rz      SF
132	0.000000	0.000000	0.000000	-27.436342	-15.731114	53.972885	1.000000	
133	0.000000	0.000000	0.000000	-25.865891	-16.757370	53.203411	1.000000	
134	0.000000	0.000000	0.000000	-24.073372	-17.694769	52.493000	1.000000	
135	0.000000	0.000000	0.000000	-22.178316	-18.365999	51.823116	1.000000	
[RLowArm]
#Fr     Tx      Ty      Tz      Rx      Ry      Rz      SF
132	0.000000	0.000000	0.000000	93.886620	0.000005	0.000045	1.000000	
133	0.000000	0.000000	0.000000	94.670235	0.000005	0.000045	1.000000	
134	0.000000	0.000000	0.000000	95.750854	0.000004	0.000046	1.000000	
135	0.000000	0.000000	0.000000	97.146782	0.000004	0.000046	1.000000	
[RHand]
#Fr     Tx      Ty      Tz      Rx      Ry      Rz      SF
132	0.000000	0.000000	0.000000	23.818251	-4.605113	-12.990836	1.000000	
133	0.000000	0.000000	0.000000	23.506870	-4.967061	-13.127224	1.000000	
134	0.000000	0.000000	0.000000	23.127300	-4.995617	-13.068665	1.000000	
135	0.000000	0.000000	0.000000	22.786650	-4.764312	-12.819990	1.000000	
[RThigh]
#Fr     Tx      Ty      Tz      Rx      Ry      Rz      SF
132	0.000000	0.000000	0.000000	15.636202	-9.279884	-5.551183	1.000000	
133	0.000000	0.000000	0.000000	16.405464	-9.529282	-6.999847	1.000000	
134	0.000000	0.000000	0.000000	17.477844	-9.832383	-8.421593	1.000000	
135	0.000000	0.000000	0.000000	18.507715	-10.094198	-9.405451	1.000000	
[RLowLeg]
#Fr     Tx      Ty      Tz      Rx      Ry      Rz      SF
132	0.000000	0.000000	0.000000	-13.911607	0.000001	-0.000005	1.000000	
133	0.000000	0.000000	0.000000	-9.648480	0.000000	-0.000004	1.000000	
134	0.000000	0.000000	0.000000	-7.497835	0.000000	-0.000003	1.000000	
135	0.000000	0.000000	0.000000	-7.792380	0.000000	-0.000003	1.000000	
[RFoot]
#Fr     Tx      Ty      Tz      Rx      Ry      Rz      SF
132	0.000000	0.000000	0.000000	-7.614255	2.788868	19.999865	1.000000	
133	0.000000	0.000000	0.000000	-12.934533	5.882347	24.048449	1.000000	
134	0.000000	0.000000	0.000000	-16.162485	8.359303	26.639662	1.000000	
135	0.000000	0.000000	0.000000	-17.373505	9.301539	27.320915	1.000000	
[RToe]
#Fr     Tx      Ty      Tz      Rx      Ry      Rz      SF
132	0.000000	0.000000	0.000000	8.796592	0.000017	0.000005	1.000000	
133	0.000000	0.000000	0.000000	8.623849	0.000016	0.000005	1.000000	
134	0.000000	0.000000	0.000000	8.780755	0.000016	0.000005	1.000000	
135	0.000000	0.000000	0.000000	9.367985	0.000018	0.000005	1.000000	
[LThigh]
#Fr     Tx      Ty      Tz      Rx      Ry      Rz      SF
132	0.000000	0.000000	0.000000	46.955799	-18.031038	-9.758916	1.000000	
133	0.000000	0.000000	0.000000	46.854511	-16.710169	-9.407087	1.000000	
134	0.000000	0.000000	0.000000	47.206097	-15.857599	-9.631745	1.000000	
135	0.000000	0.000000	0.000000	47.669506	-15.478848	-10.026042	1.000000	
[LLowLeg]
#Fr     Tx      Ty      Tz      Rx      Ry      Rz      SF
132	0.000000	0.000000	0.000000	-14.152540	0.000026	-0.000009	1.000000	
133	0.000000	0.000000	0.000000	-15.381363	0.000028	-0.000011	1.000000	
134	0.000000	0.000000	0.000000	-17.359510	0.000031	-0.000012	1.000000	
135	0.000000	0.000000	0.000000	-19.840448	0.000035	-0.000015	1.000000	
[LFoot]
#Fr     Tx      Ty      Tz      Rx      Ry      Rz      SF
132	0.000000	0.000000	0.000000	-6.656490	-0.854663	-7.283544	1.000000	
133	0.000000	0.000000	0.000000	-4.732488	-0.469600	-5.653883	1.000000	
134	0.000000	0.000000	0.000000	-4.152150	-0.363581	-4.995465	1.000000	
135	0.000000	0.000000	0.000000	-4.427245	-0.441870	-5.688204	1.000000	
[LToe]
#Fr     Tx      Ty      Tz      Rx      Ry      Rz      SF
132	0.000000	0.000000	0.000000	-22.632523	-0.000064	0.000005	1.000000	
133	0.000000	0.000000	0.000000	-22.740192	-0.000064	0.000006	1.000000	
134	0.000000	0.000000	0.000000	-23.287207	-0.000066	0.000006	1.000000	
135	0.000000	0.000000	0.000000	-24.313225	-0.000069	0.000007	1.000000	
[EndOfFile]
